# xmcd
#
# Track frame offsets: 
#        150
#        7046
#        16530
#        28694
#        41790
#        59505
#        75966
#        88130
#        106262
#        123110
#        135947
#        163404
#        197505
#
# Disc length: 2646 seconds
#
# Revision: 0
# Processed by: cddbd v1.5.2PL0 Copyright (c) Steve Scherf et al.
# Submitted via: ExactAudioCopyFreeDBPlugin 1.0
#
DISCID=990a540d
DTITLE=Luciana Souza - DUOS III
DYEAR=1900
DGENRE=Brasil
TTITLE0=Tim Tim Por Tim Tim
TTITLE1=Doralice
TTITLE2=Chora Coração
TTITLE3=Pedra da Lua
TTITLE4=Dona Lu
TTITLE5=Mágoas de Caboclo
TTITLE6=Eu Vim da Bahia
TTITLE7=As Rosas Não Falam
TTITLE8=Medley: Lamento Sertanejo (Fórro do Dominguinhos) - Maçã do Ro
TTITLE8=sto
TTITLE9=Inútil Paisagem
TTITLE10=Dindi
TTITLE11=Beijo Partido
TTITLE12=data track
EXTD=
EXTT0=
EXTT1=
EXTT2=
EXTT3=
EXTT4=
EXTT5=
EXTT6=
EXTT7=
EXTT8=
EXTT9=
EXTT10=
EXTT11=
EXTT12=
PLAYORDER=
